TITLE ""
FILE "DISC2Track08.mp3" MP3
  TRACK 01 AUDIO
    TITLE "DISC2Track08_01"
    INDEX 01 00:00:00
  TRACK 02 AUDIO
    TITLE "DISC2Track08_02"
    INDEX 01 00:05:43
  TRACK 03 AUDIO
    TITLE "DISC2Track08_03"
    INDEX 01 00:05:64
  TRACK 04 AUDIO
    TITLE "DISC2Track08_04"
    INDEX 01 00:08:55
  TRACK 05 AUDIO
    TITLE "DISC2Track08_05"
    INDEX 01 00:12:02
  TRACK 06 AUDIO
    TITLE "DISC2Track08_06"
    INDEX 01 00:15:16
  TRACK 07 AUDIO
    TITLE "DISC2Track08_07"
    INDEX 01 00:15:39
  TRACK 08 AUDIO
    TITLE "DISC2Track08_08"
    INDEX 01 00:19:10
  TRACK 09 AUDIO
    TITLE "DISC2Track08_09"
    INDEX 01 00:23:39
  TRACK 10 AUDIO
    TITLE "DISC2Track08_10"
    INDEX 01 00:27:64
  TRACK 11 AUDIO
    TITLE "DISC2Track08_11"
    INDEX 01 00:28:16
  TRACK 12 AUDIO
    TITLE "DISC2Track08_12"
    INDEX 01 00:31:30
  TRACK 13 AUDIO
    TITLE "DISC2Track08_13"
    INDEX 01 00:35:11
  TRACK 14 AUDIO
    TITLE "DISC2Track08_14"
    INDEX 01 00:38:58
  TRACK 15 AUDIO
    TITLE "DISC2Track08_15"
    INDEX 01 00:39:03
  TRACK 16 AUDIO
    TITLE "DISC2Track08_16"
    INDEX 01 00:42:40
  TRACK 17 AUDIO
    TITLE "DISC2Track08_17"
    INDEX 01 00:45:01
  TRACK 18 AUDIO
    TITLE "DISC2Track08_18"
    INDEX 01 00:47:33
  TRACK 19 AUDIO
    TITLE "DISC2Track08_19"
    INDEX 01 00:47:55
  TRACK 20 AUDIO
    TITLE "DISC2Track08_20"
    INDEX 01 00:50:69
  TRACK 21 AUDIO
    TITLE "DISC2Track08_21"
    INDEX 01 00:55:39
  TRACK 22 AUDIO
    TITLE "DISC2Track08_22"
    INDEX 01 01:00:01
  TRACK 23 AUDIO
    TITLE "DISC2Track08_23"
    INDEX 01 01:00:24
  TRACK 24 AUDIO
    TITLE "DISC2Track08_24"
    INDEX 01 01:04:12
  TRACK 25 AUDIO
    TITLE "DISC2Track08_25"
    INDEX 01 01:07:34
  TRACK 26 AUDIO
    TITLE "DISC2Track08_26"
    INDEX 01 01:10:42
  TRACK 27 AUDIO
    TITLE "DISC2Track08_27"
    INDEX 01 01:10:72
  TRACK 28 AUDIO
    TITLE "DISC2Track08_28"
    INDEX 01 01:12:65
  TRACK 29 AUDIO
    TITLE "DISC2Track08_29"
    INDEX 01 01:14:69
  TRACK 30 AUDIO
    TITLE "DISC2Track08_30"
    INDEX 01 01:16:68
  TRACK 31 AUDIO
    TITLE "DISC2Track08_31"
    INDEX 01 01:17:21
  TRACK 32 AUDIO
    TITLE "DISC2Track08_32"
    INDEX 01 01:20:70
  TRACK 33 AUDIO
    TITLE "DISC2Track08_33"
    INDEX 01 01:24:13
  TRACK 34 AUDIO
    TITLE "DISC2Track08_34"
    INDEX 01 01:27:21
  TRACK 35 AUDIO
    TITLE "DISC2Track08_35"
    INDEX 01 01:27:45
  TRACK 36 AUDIO
    TITLE "DISC2Track08_36"
    INDEX 01 01:30:18
  TRACK 37 AUDIO
    TITLE "DISC2Track08_37"
    INDEX 01 01:33:43
  TRACK 38 AUDIO
    TITLE "DISC2Track08_38"
    INDEX 01 01:36:63
  TRACK 39 AUDIO
    TITLE "DISC2Track08_39"
    INDEX 01 01:37:12
  TRACK 40 AUDIO
    TITLE "DISC2Track08_40"
    INDEX 01 01:41:15
  TRACK 41 AUDIO
    TITLE "DISC2Track08_41"
    INDEX 01 01:44:24
  TRACK 42 AUDIO
    TITLE "DISC2Track08_42"
    INDEX 01 01:47:26
  TRACK 43 AUDIO
    TITLE "DISC2Track08_43"
    INDEX 01 01:47:49
  TRACK 44 AUDIO
    TITLE "DISC2Track08_44"
    INDEX 01 01:51:35
  TRACK 45 AUDIO
    TITLE "DISC2Track08_45"
    INDEX 01 01:56:11
  TRACK 46 AUDIO
    TITLE "DISC2Track08_46"
    INDEX 01 02:00:64
